<?xml version="1.0" encoding="utf-8"?>
<!-- Generator: Adobe Illustrator 21.1.0, SVG Export Plug-In . SVG Version: 6.00 Build 0)  -->
<svg version="1.1" id="Layer_1" xmlns="http://www.w3.org/2000/svg" xmlns:xlink="http://www.w3.org/1999/xlink" x="0px" y="0px"
	 viewBox="0 0 38 36.7" style="enable-background:new 0 0 38 36.7;" xml:space="preserve">
<g>
	<defs>
		<path id="SVGID_1_" d="M19,0c-5.2,0-5.8,0-7.8,0.1C9.1,0.2,7.8,0.5,6.6,1C5.3,1.4,4.2,2.1,3.2,3.1c-1.1,1-1.7,2-2.2,3.2
			c-0.5,1.2-0.8,2.5-0.9,4.5C0,12.7,0,13.4,0,18.3c0,5,0,5.6,0.1,7.6c0.1,2,0.4,3.3,0.9,4.5c0.5,1.2,1.1,2.2,2.2,3.2
			c1.1,1,2.1,1.6,3.4,2.1c1.2,0.5,2.6,0.8,4.6,0.9c2,0.1,2.7,0.1,7.8,0.1c5.2,0,5.8,0,7.8-0.1c2-0.1,3.4-0.4,4.6-0.9
			c1.2-0.5,2.3-1.1,3.4-2.1c1.1-1,1.7-2,2.2-3.2c0.5-1.2,0.8-2.5,0.9-4.5c0.1-2,0.1-2.6,0.1-7.6c0-5,0-5.6-0.1-7.6
			c-0.1-2-0.4-3.3-0.9-4.5c-0.5-1.2-1.1-2.2-2.2-3.2c-1.1-1-2.1-1.6-3.4-2.1c-1.2-0.5-2.6-0.8-4.6-0.9C24.8,0,24.2,0,19,0 M19,3.3
			c5.1,0,5.7,0,7.7,0.1c1.9,0.1,2.9,0.4,3.5,0.6c0.9,0.3,1.5,0.7,2.2,1.4c0.7,0.6,1.1,1.3,1.4,2.1c0.3,0.6,0.6,1.6,0.7,3.4
			c0.1,1.9,0.1,2.5,0.1,7.4s0,5.5-0.1,7.4c-0.1,1.8-0.4,2.8-0.7,3.4c-0.3,0.9-0.8,1.5-1.4,2.1c-0.7,0.6-1.3,1-2.2,1.4
			c-0.7,0.3-1.7,0.5-3.5,0.6c-2,0.1-2.6,0.1-7.7,0.1c-5.1,0-5.7,0-7.7-0.1c-1.9-0.1-2.9-0.4-3.5-0.6c-0.9-0.3-1.5-0.7-2.2-1.4
			c-0.7-0.6-1.1-1.3-1.4-2.1c-0.3-0.6-0.6-1.6-0.7-3.4c-0.1-1.9-0.1-2.5-0.1-7.4s0-5.5,0.1-7.4c0.1-1.8,0.4-2.8,0.7-3.4
			c0.3-0.9,0.8-1.5,1.4-2.1c0.7-0.6,1.3-1,2.2-1.4c0.7-0.3,1.7-0.6,3.5-0.6C13.3,3.3,13.9,3.3,19,3.3"/>
	</defs>
	<clipPath id="SVGID_2_">
		<use xlink:href="#SVGID_1_"  style="overflow:visible;"/>
	</clipPath>
	<g style="clip-path:url(#SVGID_2_);">
		<defs>
			<rect id="SVGID_3_" x="-1755" y="-10267" width="2664" height="11203"/>
		</defs>
		<clipPath id="SVGID_4_">
			<use xlink:href="#SVGID_3_"  style="overflow:visible;"/>
		</clipPath>
		<rect x="-5" y="-5" style="clip-path:url(#SVGID_4_);fill:#E6B10E;" width="48" height="46.7"/>
	</g>
</g>
<g>
	<defs>
		<path id="SVGID_5_" d="M19,24.5c-3.5,0-6.3-2.7-6.3-6.1c0-3.4,2.8-6.1,6.3-6.1s6.3,2.7,6.3,6.1C25.3,21.7,22.5,24.5,19,24.5
			 M19,8.9c-5.4,0-9.8,4.2-9.8,9.4c0,5.2,4.4,9.4,9.8,9.4c5.4,0,9.8-4.2,9.8-9.4C28.8,13.1,24.4,8.9,19,8.9"/>
	</defs>
	<clipPath id="SVGID_6_">
		<use xlink:href="#SVGID_5_"  style="overflow:visible;"/>
	</clipPath>
	<g style="clip-path:url(#SVGID_6_);">
		<defs>
			<rect id="SVGID_7_" x="-1755" y="-10267" width="2664" height="11203"/>
		</defs>
		<clipPath id="SVGID_8_">
			<use xlink:href="#SVGID_7_"  style="overflow:visible;"/>
		</clipPath>
		<rect x="4.2" y="3.9" style="clip-path:url(#SVGID_8_);fill:#E6B10E;" width="29.5" height="28.8"/>
	</g>
</g>
<g>
	<defs>
		<path id="SVGID_9_" d="M31.4,8.6c0,1.2-1,2.2-2.3,2.2c-1.3,0-2.3-1-2.3-2.2c0-1.2,1-2.2,2.3-2.2C30.4,6.4,31.4,7.3,31.4,8.6"/>
	</defs>
	<clipPath id="SVGID_10_">
		<use xlink:href="#SVGID_9_"  style="overflow:visible;"/>
	</clipPath>
	<g style="clip-path:url(#SVGID_10_);">
		<defs>
			<rect id="SVGID_11_" x="-1755" y="-10267" width="2664" height="11203"/>
		</defs>
		<clipPath id="SVGID_12_">
			<use xlink:href="#SVGID_11_"  style="overflow:visible;"/>
		</clipPath>
		<rect x="21.9" y="1.4" style="clip-path:url(#SVGID_12_);fill:#E6B10E;" width="14.6" height="14.4"/>
	</g>
</g>
</svg>
