<?xml version="1.0" encoding="utf-8"?>
<!-- Generator: Adobe Illustrator 21.1.0, SVG Export Plug-In . SVG Version: 6.00 Build 0)  -->
<svg version="1.1" id="Layer_1" xmlns="http://www.w3.org/2000/svg" xmlns:xlink="http://www.w3.org/1999/xlink" x="0px" y="0px"
	 viewBox="0 0 32.8 30.2" style="enable-background:new 0 0 32.8 30.2;" xml:space="preserve">
<g id="Desktop">
	<g id="Home" transform="translate(-1996.000000, -10270.000000)">
		<g id="Footer" transform="translate(0.000000, 9977.000000)">
			<g id="Follow" transform="translate(1570.000000, 177.000000)">
				<g id="Icons_x2F_Social_x2F_LinkedIn" transform="translate(426.000000, 115.853403)">
					<path id="Shape" style="fill:#E6B10E;" d="M24.7,9.5c-3.7,0-5.4,2-6.3,3.4v0.1h0c0,0,0,0,0-0.1V10h-7c0.1,1.9,0,20.4,0,20.4h7
						V19c0-0.6,0-1.2,0.2-1.7c0.5-1.2,1.7-2.5,3.6-2.5c2.5,0,3.6,1.9,3.6,4.6v10.9h7V18.7C32.7,12.4,29.3,9.5,24.7,9.5z"/>
					<path id="Shape_1_" style="fill:#E6B10E;" d="M4,0.1c-2.4,0-4,1.5-4,3.5c0,2,1.5,3.5,3.9,3.5h0c2.4,0,4-1.6,4-3.5
						C7.9,1.7,6.4,0.1,4,0.1z"/>
					<rect id="Rectangle-path" x="0.4" y="10" style="fill:#E6B10E;" width="7" height="20.4"/>
				</g>
			</g>
		</g>
	</g>
</g>
</svg>
